<svg width="267" height="56" viewBox="0 0 267 56" fill="none" xmlns="http://www.w3.org/2000/svg">
<path d="M62.758 45.3858C61.8048 45.3858 61.12 46.0111 60.7035 47.2617C60.6955 47.2859 60.6715 47.298 60.6314 47.298C60.5914 47.29 60.5714 47.2738 60.5714 47.2496C60.6034 46.9269 60.6394 46.5114 60.6795 46.003C60.7195 45.4866 60.7396 45.0993 60.7396 44.8412C60.7396 44.8008 60.7596 44.7806 60.7996 44.7806C60.8477 44.7806 60.8717 44.8008 60.8717 44.8412C60.8717 45.0187 61.1 45.1074 61.5565 45.1074C62.2454 45.1316 63.0503 45.1437 63.9714 45.1437C64.444 45.1437 64.9446 45.1357 65.4732 45.1195L66.2902 45.1074C66.5945 45.1074 66.8148 45.0872 66.951 45.0469C67.0951 45.0066 67.1872 44.9259 67.2273 44.8048C67.2353 44.7726 67.2593 44.7564 67.2994 44.7564C67.3474 44.7564 67.3715 44.7726 67.3715 44.8048C67.3474 45.0469 67.3194 45.4342 67.2874 45.9667C67.2633 46.4992 67.2513 46.9269 67.2513 47.2496C67.2513 47.2738 67.2313 47.2859 67.1913 47.2859C67.1512 47.2859 67.1272 47.2738 67.1192 47.2496C66.999 46.6283 66.7748 46.1644 66.4464 45.8578C66.118 45.5431 65.7135 45.3858 65.2329 45.3858C65.0006 45.3858 64.8445 45.4382 64.7644 45.5431C64.6923 45.6399 64.6562 45.8296 64.6562 46.112V51.6914C64.6562 51.9415 64.6803 52.1231 64.7283 52.236C64.7764 52.349 64.8685 52.4256 65.0046 52.466C65.1408 52.5063 65.3571 52.5265 65.6534 52.5265C65.6774 52.5265 65.6895 52.5507 65.6895 52.5991C65.6895 52.6475 65.6774 52.6717 65.6534 52.6717C65.3651 52.6717 65.1368 52.6677 64.9686 52.6596L63.9714 52.6475L62.9982 52.6596C62.83 52.6677 62.5978 52.6717 62.3014 52.6717C62.2774 52.6717 62.2654 52.6475 62.2654 52.5991C62.2654 52.5507 62.2774 52.5265 62.3014 52.5265C62.5898 52.5265 62.802 52.5063 62.9382 52.466C63.0824 52.4256 63.1785 52.349 63.2265 52.236C63.2826 52.115 63.3106 51.9334 63.3106 51.6914V46.0878C63.3106 45.8134 63.2746 45.6278 63.2025 45.531C63.1304 45.4342 62.9822 45.3858 62.758 45.3858Z" fill="#010101"/>
<path d="M81.2309 45.1074C81.247 45.1074 81.255 45.1316 81.255 45.18C81.255 45.2284 81.247 45.2527 81.2309 45.2527C80.9346 45.2527 80.6543 45.3818 80.3899 45.6399C80.1336 45.8901 79.9214 46.237 79.7532 46.6808L77.5305 52.6596C77.5225 52.6919 77.4785 52.708 77.3984 52.708C77.3183 52.708 77.2742 52.6919 77.2662 52.6596L75.7284 49.3797L74.5149 52.6596C74.5069 52.6919 74.4629 52.708 74.3828 52.708C74.3027 52.708 74.2586 52.6919 74.2506 52.6596L71.187 46.112C71.0668 45.8538 70.9667 45.6682 70.8866 45.5552C70.8145 45.4423 70.7304 45.3656 70.6343 45.3253C70.5462 45.2769 70.426 45.2527 70.2739 45.2527C70.2498 45.2527 70.2378 45.2284 70.2378 45.18C70.2378 45.1316 70.2498 45.1074 70.2739 45.1074C70.394 45.1074 70.4781 45.1115 70.5262 45.1195C70.6864 45.1357 70.8946 45.1437 71.1509 45.1437C71.6876 45.1437 72.1401 45.1357 72.5085 45.1195C72.6127 45.1115 72.7408 45.1074 72.893 45.1074C72.917 45.1074 72.929 45.1316 72.929 45.18C72.929 45.2284 72.917 45.2527 72.893 45.2527C72.6928 45.2527 72.5486 45.2728 72.4605 45.3132C72.3804 45.3535 72.3403 45.4261 72.3403 45.531C72.3403 45.6682 72.4324 45.9344 72.6167 46.3298L74.7792 50.9531L75.5361 48.9561L74.2026 46.112C74.0664 45.8215 73.9382 45.6077 73.8181 45.4705C73.698 45.3253 73.5698 45.2527 73.4336 45.2527C73.4096 45.2527 73.3976 45.2284 73.3976 45.18C73.3976 45.1316 73.4096 45.1074 73.4336 45.1074C73.5137 45.1074 73.6058 45.1155 73.71 45.1316C73.8221 45.1397 73.9783 45.1437 74.1785 45.1437C74.6351 45.1437 75.0155 45.1357 75.3199 45.1195C75.4 45.1115 75.5041 45.1074 75.6323 45.1074C75.6563 45.1074 75.6683 45.1316 75.6683 45.18C75.6683 45.2284 75.6563 45.2527 75.6323 45.2527C75.5201 45.2527 75.436 45.2688 75.38 45.3011C75.3319 45.3253 75.3079 45.3737 75.3079 45.4463C75.3079 45.5835 75.416 45.878 75.6323 46.3298L76.1609 47.4554L76.4613 46.6445C76.6375 46.1846 76.7256 45.8376 76.7256 45.6036C76.7256 45.3696 76.6254 45.2527 76.4252 45.2527C76.4012 45.2527 76.3892 45.2284 76.3892 45.18C76.3892 45.1316 76.4012 45.1074 76.4252 45.1074C76.4893 45.1074 76.5574 45.1155 76.6294 45.1316C76.7095 45.1397 76.9018 45.1437 77.2061 45.1437C77.3423 45.1437 77.5065 45.1357 77.6987 45.1195L78.1433 45.1074C78.1593 45.1074 78.1673 45.1316 78.1673 45.18C78.1673 45.2284 78.1593 45.2527 78.1433 45.2527C77.6066 45.2527 77.1621 45.7287 76.8097 46.6808L76.3651 47.879L77.8069 50.941L79.3567 46.7655C79.4528 46.5073 79.5009 46.2733 79.5009 46.0635C79.5009 45.8134 79.4368 45.6157 79.3086 45.4705C79.1885 45.3253 79.0243 45.2527 78.8161 45.2527C78.792 45.2527 78.78 45.2284 78.78 45.18C78.78 45.1316 78.792 45.1074 78.8161 45.1074L79.3687 45.1195C79.6571 45.1357 79.9214 45.1437 80.1617 45.1437C80.3219 45.1437 80.5061 45.1357 80.7143 45.1195L81.2309 45.1074Z" fill="#010101"/>
<path d="M87.6086 52.8169C86.8637 52.8169 86.1989 52.6435 85.6142 52.2965C85.0375 51.9415 84.589 51.4655 84.2686 50.8684C83.9562 50.2632 83.8 49.6057 83.8 48.8956C83.8 48.0646 84.0083 47.3545 84.4248 46.7655C84.8413 46.1684 85.3739 45.7206 86.0227 45.4221C86.6795 45.1236 87.3483 44.9743 88.0291 44.9743C88.79 44.9743 89.4588 45.1558 90.0355 45.5189C90.6122 45.8739 91.0527 46.3459 91.357 46.935C91.6694 47.524 91.8256 48.1493 91.8256 48.8109C91.8256 49.5451 91.6334 50.2189 91.2489 50.8321C90.8645 51.4453 90.3478 51.9294 89.6991 52.2844C89.0583 52.6394 88.3615 52.8169 87.6086 52.8169ZM88.0051 52.5144C88.4536 52.5144 88.8541 52.3853 89.2065 52.1271C89.5669 51.8608 89.8473 51.4776 90.0475 50.9773C90.2477 50.469 90.3479 49.8638 90.3479 49.1619C90.3479 48.4196 90.2357 47.7579 90.0115 47.177C89.7872 46.588 89.4628 46.1281 89.0383 45.7973C88.6138 45.4665 88.1172 45.3011 87.5485 45.3011C86.8196 45.3011 86.259 45.5794 85.8665 46.1362C85.474 46.6848 85.2778 47.4554 85.2778 48.4478C85.2778 49.2305 85.3939 49.9324 85.6262 50.5537C85.8665 51.1669 86.1909 51.647 86.5994 51.9939C87.0159 52.3409 87.4844 52.5144 88.0051 52.5144Z" fill="#010101"/>
<path d="M97.624 51.8608C97.624 52.7 97.5479 53.3737 97.3958 53.882C97.2516 54.3903 97.0033 54.8058 96.6509 55.1286C96.2985 55.4513 95.7938 55.7418 95.1371 56H95.125C95.101 56 95.081 55.9798 95.065 55.9395C95.057 55.9072 95.061 55.883 95.077 55.8669C95.5255 55.5764 95.8379 55.1326 96.0141 54.5356C96.1903 53.9466 96.2784 53.1639 96.2784 52.1876V46.0878C96.2784 45.8457 96.2544 45.6682 96.2063 45.5552C96.1663 45.4423 96.0862 45.3656 95.966 45.3253C95.8459 45.2769 95.6577 45.2527 95.4014 45.2527C95.3854 45.2527 95.3773 45.2284 95.3773 45.18C95.3773 45.1316 95.3854 45.1074 95.4014 45.1074L96.0862 45.1195C96.4546 45.1357 96.739 45.1437 96.9392 45.1437C97.1555 45.1437 97.4318 45.1357 97.7682 45.1195L98.3449 45.1074C98.3609 45.1074 98.3689 45.1316 98.3689 45.18C98.3689 45.2284 98.3609 45.2527 98.3449 45.2527C98.1366 45.2527 97.9805 45.2769 97.8763 45.3253C97.7802 45.3737 97.7121 45.4584 97.6721 45.5794C97.64 45.6924 97.624 45.8699 97.624 46.112V51.8608Z" fill="#010101"/>
<path d="M107.199 50.7474C107.199 50.7312 107.215 50.7232 107.247 50.7232C107.271 50.7232 107.291 50.7312 107.307 50.7474C107.331 50.7554 107.343 50.7635 107.343 50.7716C107.263 51.4009 107.223 51.9738 107.223 52.4902C107.223 52.5547 107.211 52.6031 107.187 52.6354C107.163 52.6596 107.115 52.6717 107.043 52.6717H101.732C101.708 52.6717 101.696 52.6475 101.696 52.5991C101.696 52.5507 101.708 52.5265 101.732 52.5265C101.989 52.5265 102.173 52.5063 102.285 52.466C102.405 52.4256 102.485 52.349 102.525 52.236C102.565 52.115 102.585 51.9334 102.585 51.6914V46.0878C102.585 45.8457 102.565 45.6682 102.525 45.5552C102.485 45.4423 102.405 45.3656 102.285 45.3253C102.165 45.2769 101.981 45.2527 101.732 45.2527C101.708 45.2527 101.696 45.2284 101.696 45.18C101.696 45.1316 101.708 45.1074 101.732 45.1074H106.827C106.907 45.1074 106.947 45.1437 106.947 45.2163L106.971 46.826C106.971 46.8422 106.947 46.8543 106.899 46.8623C106.859 46.8704 106.835 46.8623 106.827 46.8381C106.698 46.3702 106.482 46.0232 106.178 45.7973C105.873 45.5714 105.473 45.4584 104.976 45.4584H104.616C104.376 45.4584 104.199 45.5108 104.087 45.6157C103.975 45.7206 103.919 45.882 103.919 46.0999V48.5688H104.916C105.381 48.5688 105.737 48.4882 105.986 48.3268C106.234 48.1654 106.358 47.9395 106.358 47.649C106.358 47.6248 106.378 47.6127 106.418 47.6127C106.466 47.6127 106.49 47.6248 106.49 47.649L106.478 48.7383L106.49 49.3192C106.506 49.5936 106.514 49.8114 106.514 49.9728C106.514 49.9889 106.49 49.997 106.442 49.997C106.394 49.997 106.37 49.9889 106.37 49.9728C106.37 49.642 106.242 49.3838 105.986 49.1982C105.737 49.0045 105.377 48.9077 104.904 48.9077H103.919V51.643C103.919 51.877 103.963 52.0504 104.051 52.1634C104.139 52.2764 104.28 52.3328 104.472 52.3328H104.868C105.493 52.3328 105.994 52.2037 106.37 51.9455C106.746 51.6873 107.023 51.288 107.199 50.7474Z" fill="#010101"/>
<path d="M118.218 51.6914C118.218 51.9415 118.238 52.1231 118.278 52.236C118.318 52.349 118.394 52.4256 118.506 52.466C118.626 52.5063 118.814 52.5265 119.071 52.5265C119.095 52.5265 119.107 52.5507 119.107 52.5991C119.107 52.6475 119.095 52.6717 119.071 52.6717C118.806 52.6717 118.598 52.6677 118.446 52.6596L117.533 52.6475L116.644 52.6596C116.484 52.6677 116.267 52.6717 115.995 52.6717C115.979 52.6717 115.971 52.6475 115.971 52.5991C115.971 52.5507 115.979 52.5265 115.995 52.5265C116.251 52.5265 116.44 52.5063 116.56 52.466C116.68 52.4256 116.76 52.349 116.8 52.236C116.848 52.115 116.872 51.9334 116.872 51.6914V46.0878C116.872 45.8457 116.848 45.6682 116.8 45.5552C116.76 45.4423 116.68 45.3656 116.56 45.3253C116.44 45.2769 116.251 45.2527 115.995 45.2527C115.979 45.2527 115.971 45.2284 115.971 45.18C115.971 45.1316 115.979 45.1074 115.995 45.1074L116.644 45.1195C117.012 45.1357 117.309 45.1437 117.533 45.1437C117.781 45.1437 118.09 45.1357 118.458 45.1195L119.071 45.1074C119.095 45.1074 119.107 45.1316 119.107 45.18C119.107 45.2284 119.095 45.2527 119.071 45.2527C118.822 45.2527 118.638 45.2769 118.518 45.3253C118.398 45.3737 118.318 45.4584 118.278 45.5794C118.238 45.6924 118.218 45.8699 118.218 46.112V51.6914Z" fill="#010101"/>
<path d="M130.686 45.1074C130.702 45.1074 130.71 45.1316 130.71 45.18C130.71 45.2284 130.702 45.2527 130.686 45.2527C130.366 45.2527 130.113 45.3818 129.929 45.6399C129.745 45.8901 129.653 46.229 129.653 46.6566V52.8533C129.653 52.8775 129.633 52.8936 129.593 52.9017C129.561 52.9097 129.537 52.9057 129.521 52.8896L123.886 46.4266V51.1346C123.886 51.5623 123.974 51.9012 124.15 52.1513C124.327 52.4014 124.571 52.5265 124.883 52.5265C124.899 52.5265 124.907 52.5507 124.907 52.5991C124.907 52.6475 124.899 52.6717 124.883 52.6717C124.659 52.6717 124.487 52.6677 124.367 52.6596L123.718 52.6475L122.973 52.6596C122.837 52.6677 122.641 52.6717 122.384 52.6717C122.36 52.6717 122.348 52.6475 122.348 52.5991C122.348 52.5507 122.36 52.5265 122.384 52.5265C122.737 52.5265 123.013 52.4014 123.213 52.1513C123.422 51.9012 123.526 51.5623 123.526 51.1346V46.0151C123.261 45.7247 123.033 45.527 122.841 45.4221C122.657 45.3091 122.464 45.2527 122.264 45.2527C122.248 45.2527 122.24 45.2284 122.24 45.18C122.24 45.1316 122.248 45.1074 122.264 45.1074L122.769 45.1195C122.873 45.1276 123.025 45.1316 123.225 45.1316L124.138 45.1195C124.25 45.1115 124.387 45.1074 124.547 45.1074C124.611 45.1074 124.659 45.1236 124.691 45.1558C124.723 45.1881 124.779 45.2567 124.859 45.3616C124.995 45.5472 125.091 45.6722 125.148 45.7368L129.305 50.5658V46.6566C129.305 46.2209 129.216 45.878 129.04 45.6278C128.864 45.3777 128.62 45.2527 128.307 45.2527C128.291 45.2527 128.283 45.2284 128.283 45.18C128.283 45.1316 128.291 45.1074 128.307 45.1074L128.824 45.1195C129.08 45.1357 129.296 45.1437 129.473 45.1437C129.633 45.1437 129.857 45.1357 130.146 45.1195L130.686 45.1074Z" fill="#010101"/>
<path d="M144.255 45.1074C144.271 45.1074 144.279 45.1316 144.279 45.18C144.279 45.2284 144.271 45.2527 144.255 45.2527C143.958 45.2527 143.678 45.3818 143.414 45.6399C143.157 45.8901 142.945 46.237 142.777 46.6808L140.554 52.6596C140.546 52.6919 140.502 52.708 140.422 52.708C140.342 52.708 140.298 52.6919 140.29 52.6596L138.752 49.3797L137.539 52.6596C137.531 52.6919 137.486 52.708 137.406 52.708C137.326 52.708 137.282 52.6919 137.274 52.6596L134.211 46.112C134.09 45.8538 133.99 45.6682 133.91 45.5552C133.838 45.4423 133.754 45.3656 133.658 45.3253C133.57 45.2769 133.45 45.2527 133.298 45.2527C133.273 45.2527 133.261 45.2284 133.261 45.18C133.261 45.1316 133.273 45.1074 133.298 45.1074C133.418 45.1074 133.502 45.1115 133.55 45.1195C133.71 45.1357 133.918 45.1437 134.175 45.1437C134.711 45.1437 135.164 45.1357 135.532 45.1195C135.636 45.1115 135.764 45.1074 135.917 45.1074C135.941 45.1074 135.953 45.1316 135.953 45.18C135.953 45.2284 135.941 45.2527 135.917 45.2527C135.716 45.2527 135.572 45.2728 135.484 45.3132C135.404 45.3535 135.364 45.4261 135.364 45.531C135.364 45.6682 135.456 45.9344 135.64 46.3298L137.803 50.9531L138.56 48.9561L137.226 46.112C137.09 45.8215 136.962 45.6077 136.842 45.4705C136.722 45.3253 136.593 45.2527 136.457 45.2527C136.433 45.2527 136.421 45.2284 136.421 45.18C136.421 45.1316 136.433 45.1074 136.457 45.1074C136.537 45.1074 136.629 45.1155 136.734 45.1316C136.846 45.1397 137.002 45.1437 137.202 45.1437C137.659 45.1437 138.039 45.1357 138.344 45.1195C138.424 45.1115 138.528 45.1074 138.656 45.1074C138.68 45.1074 138.692 45.1316 138.692 45.18C138.692 45.2284 138.68 45.2527 138.656 45.2527C138.544 45.2527 138.46 45.2688 138.404 45.3011C138.356 45.3253 138.332 45.3737 138.332 45.4463C138.332 45.5835 138.44 45.878 138.656 46.3298L139.185 47.4554L139.485 46.6445C139.661 46.1846 139.749 45.8376 139.749 45.6036C139.749 45.3696 139.649 45.2527 139.449 45.2527C139.425 45.2527 139.413 45.2284 139.413 45.18C139.413 45.1316 139.425 45.1074 139.449 45.1074C139.513 45.1074 139.581 45.1155 139.653 45.1316C139.733 45.1397 139.925 45.1437 140.23 45.1437C140.366 45.1437 140.53 45.1357 140.722 45.1195L141.167 45.1074C141.183 45.1074 141.191 45.1316 141.191 45.18C141.191 45.2284 141.183 45.2527 141.167 45.2527C140.63 45.2527 140.186 45.7287 139.833 46.6808L139.389 47.879L140.83 50.941L142.38 46.7655C142.476 46.5073 142.525 46.2733 142.525 46.0635C142.525 45.8134 142.46 45.6157 142.332 45.4705C142.212 45.3253 142.048 45.2527 141.84 45.2527C141.816 45.2527 141.804 45.2284 141.804 45.18C141.804 45.1316 141.816 45.1074 141.84 45.1074L142.392 45.1195C142.681 45.1357 142.945 45.1437 143.185 45.1437C143.345 45.1437 143.53 45.1357 143.738 45.1195L144.255 45.1074Z" fill="#010101"/>
<path d="M152.546 50.7474C152.546 50.7312 152.562 50.7232 152.594 50.7232C152.618 50.7232 152.638 50.7312 152.654 50.7474C152.678 50.7554 152.69 50.7635 152.69 50.7716C152.61 51.4009 152.57 51.9738 152.57 52.4902C152.57 52.5547 152.558 52.6031 152.534 52.6354C152.51 52.6596 152.462 52.6717 152.39 52.6717H147.08C147.056 52.6717 147.043 52.6475 147.043 52.5991C147.043 52.5507 147.056 52.5265 147.08 52.5265C147.336 52.5265 147.52 52.5063 147.632 52.466C147.752 52.4256 147.832 52.349 147.872 52.236C147.913 52.115 147.933 51.9334 147.933 51.6914V46.0878C147.933 45.8457 147.913 45.6682 147.872 45.5552C147.832 45.4423 147.752 45.3656 147.632 45.3253C147.512 45.2769 147.328 45.2527 147.08 45.2527C147.056 45.2527 147.043 45.2284 147.043 45.18C147.043 45.1316 147.056 45.1074 147.08 45.1074H152.174C152.254 45.1074 152.294 45.1437 152.294 45.2163L152.318 46.826C152.318 46.8422 152.294 46.8543 152.246 46.8623C152.206 46.8704 152.182 46.8623 152.174 46.8381C152.045 46.3702 151.829 46.0232 151.525 45.7973C151.22 45.5714 150.82 45.4584 150.323 45.4584H149.963C149.723 45.4584 149.546 45.5108 149.434 45.6157C149.322 45.7206 149.266 45.882 149.266 46.0999V48.5688H150.263C150.728 48.5688 151.084 48.4882 151.333 48.3268C151.581 48.1654 151.705 47.9395 151.705 47.649C151.705 47.6248 151.725 47.6127 151.765 47.6127C151.813 47.6127 151.837 47.6248 151.837 47.649L151.825 48.7383L151.837 49.3192C151.853 49.5936 151.861 49.8114 151.861 49.9728C151.861 49.9889 151.837 49.997 151.789 49.997C151.741 49.997 151.717 49.9889 151.717 49.9728C151.717 49.642 151.589 49.3838 151.333 49.1982C151.084 49.0045 150.724 48.9077 150.251 48.9077H149.266V51.643C149.266 51.877 149.31 52.0504 149.398 52.1634C149.486 52.2764 149.627 52.3328 149.819 52.3328H150.215C150.84 52.3328 151.341 52.2037 151.717 51.9455C152.094 51.6873 152.37 51.288 152.546 50.7474Z" fill="#010101"/>
<path d="M157.709 46.3298C157.709 46.6203 157.781 46.8785 157.926 47.1044C158.078 47.3303 158.262 47.528 158.478 47.6974C158.694 47.8669 158.987 48.0726 159.355 48.3147C159.756 48.5729 160.076 48.7988 160.316 48.9924C160.557 49.1861 160.761 49.4241 160.929 49.7065C161.097 49.9808 161.181 50.2995 161.181 50.6626C161.181 51.0822 161.069 51.4574 160.845 51.7882C160.621 52.1109 160.308 52.3651 159.908 52.5507C159.515 52.7282 159.075 52.8169 158.586 52.8169C158.226 52.8169 157.849 52.7685 157.457 52.6717C157.065 52.5668 156.8 52.4539 156.664 52.3328C156.624 52.3006 156.592 52.2723 156.568 52.2481C156.552 52.2158 156.544 52.1674 156.544 52.1029L156.508 50.1785V50.1664C156.508 50.1341 156.528 50.118 156.568 50.118C156.608 50.1099 156.632 50.122 156.64 50.1543C156.88 50.6465 157.089 51.0459 157.265 51.3525C157.449 51.6591 157.677 51.9294 157.95 52.1634C158.23 52.3974 158.546 52.5144 158.899 52.5144C159.219 52.5144 159.483 52.4297 159.692 52.2602C159.9 52.0827 160.004 51.7842 160.004 51.3646C160.004 51.0096 159.924 50.6989 159.764 50.4327C159.612 50.1664 159.423 49.9405 159.199 49.7549C158.975 49.5693 158.666 49.3475 158.274 49.0893C157.89 48.8391 157.589 48.6253 157.373 48.4478C157.165 48.2703 156.984 48.0565 156.832 47.8064C156.68 47.5562 156.604 47.2617 156.604 46.9229C156.604 46.4952 156.724 46.1362 156.964 45.8457C157.213 45.5472 157.529 45.3293 157.914 45.1921C158.298 45.0469 158.702 44.9743 159.127 44.9743C159.407 44.9743 159.692 45.0025 159.98 45.059C160.268 45.1074 160.501 45.1679 160.677 45.2406C160.749 45.2728 160.797 45.3091 160.821 45.3495C160.845 45.3818 160.857 45.4261 160.857 45.4826V47.2617C160.857 47.2859 160.837 47.3061 160.797 47.3222C160.757 47.3303 160.733 47.3222 160.725 47.298L160.629 47.0681C160.429 46.5598 160.192 46.1281 159.92 45.7731C159.656 45.4181 159.283 45.2406 158.803 45.2406C158.482 45.2406 158.218 45.3333 158.01 45.5189C157.809 45.7045 157.709 45.9748 157.709 46.3298Z" fill="#010101"/>
<path d="M166.872 45.3858C165.919 45.3858 165.234 46.0111 164.818 47.2617C164.81 47.2859 164.786 47.298 164.745 47.298C164.705 47.29 164.685 47.2738 164.685 47.2496C164.717 46.9269 164.753 46.5114 164.794 46.003C164.834 45.4866 164.854 45.0993 164.854 44.8412C164.854 44.8008 164.874 44.7806 164.914 44.7806C164.962 44.7806 164.986 44.8008 164.986 44.8412C164.986 45.0187 165.214 45.1074 165.671 45.1074C166.359 45.1316 167.164 45.1437 168.085 45.1437C168.558 45.1437 169.059 45.1357 169.587 45.1195L170.404 45.1074C170.709 45.1074 170.929 45.0872 171.065 45.0469C171.209 45.0066 171.301 44.9259 171.341 44.8048C171.349 44.7726 171.373 44.7564 171.413 44.7564C171.461 44.7564 171.486 44.7726 171.486 44.8048C171.461 45.0469 171.433 45.4342 171.401 45.9667C171.377 46.4992 171.365 46.9269 171.365 47.2496C171.365 47.2738 171.345 47.2859 171.305 47.2859C171.265 47.2859 171.241 47.2738 171.233 47.2496C171.113 46.6283 170.889 46.1644 170.56 45.8578C170.232 45.5431 169.828 45.3858 169.347 45.3858C169.115 45.3858 168.959 45.4382 168.878 45.5431C168.806 45.6399 168.77 45.8296 168.77 46.112V51.6914C168.77 51.9415 168.794 52.1231 168.842 52.236C168.89 52.349 168.983 52.4256 169.119 52.466C169.255 52.5063 169.471 52.5265 169.767 52.5265C169.792 52.5265 169.804 52.5507 169.804 52.5991C169.804 52.6475 169.792 52.6717 169.767 52.6717C169.479 52.6717 169.251 52.6677 169.083 52.6596L168.085 52.6475L167.112 52.6596C166.944 52.6677 166.712 52.6717 166.415 52.6717C166.391 52.6717 166.379 52.6475 166.379 52.5991C166.379 52.5507 166.391 52.5265 166.415 52.5265C166.704 52.5265 166.916 52.5063 167.052 52.466C167.196 52.4256 167.293 52.349 167.341 52.236C167.397 52.115 167.425 51.9334 167.425 51.6914V46.0878C167.425 45.8134 167.389 45.6278 167.317 45.531C167.244 45.4342 167.096 45.3858 166.872 45.3858Z" fill="#010101"/>
<path d="M181.837 45.1074C181.853 45.1074 181.861 45.1316 181.861 45.18C181.861 45.2284 181.853 45.2527 181.837 45.2527C181.589 45.2527 181.284 45.41 180.924 45.7247C180.563 46.0313 180.243 46.4186 179.963 46.8865L178.713 48.9924V51.6914C178.713 51.9415 178.733 52.1231 178.773 52.236C178.813 52.349 178.889 52.4256 179.001 52.466C179.122 52.5063 179.31 52.5265 179.566 52.5265C179.59 52.5265 179.602 52.5507 179.602 52.5991C179.602 52.6475 179.59 52.6717 179.566 52.6717C179.302 52.6717 179.094 52.6677 178.941 52.6596L178.04 52.6475L177.151 52.6596C176.991 52.6677 176.775 52.6717 176.502 52.6717C176.486 52.6717 176.478 52.6475 176.478 52.5991C176.478 52.5507 176.486 52.5265 176.502 52.5265C176.759 52.5265 176.947 52.5063 177.067 52.466C177.187 52.4256 177.267 52.349 177.307 52.236C177.355 52.115 177.38 51.9334 177.38 51.6914V49.2466L175.625 46.4992C175.329 46.0313 175.081 45.7085 174.881 45.531C174.688 45.3454 174.524 45.2527 174.388 45.2527C174.364 45.2527 174.352 45.2284 174.352 45.18C174.352 45.1316 174.364 45.1074 174.388 45.1074L174.76 45.1195C174.937 45.1357 175.061 45.1437 175.133 45.1437C175.413 45.1437 175.818 45.1357 176.346 45.1195L177.139 45.1074C177.155 45.1074 177.163 45.1316 177.163 45.18C177.163 45.2284 177.155 45.2527 177.139 45.2527C177.003 45.2527 176.895 45.2849 176.815 45.3495C176.743 45.414 176.707 45.4987 176.707 45.6036C176.707 45.7327 176.763 45.886 176.875 46.0635L178.521 48.6778L179.626 46.7776C179.842 46.4145 179.951 46.1039 179.951 45.8457C179.951 45.652 179.891 45.5068 179.77 45.41C179.658 45.3051 179.494 45.2527 179.278 45.2527C179.254 45.2527 179.242 45.2284 179.242 45.18C179.242 45.1316 179.254 45.1074 179.278 45.1074L179.915 45.1195C180.283 45.1357 180.611 45.1437 180.9 45.1437C181.036 45.1437 181.2 45.1357 181.392 45.1195L181.837 45.1074Z" fill="#010101"/>
<path d="M188.875 44.9743C189.228 44.9743 189.596 45.0066 189.981 45.0711C190.365 45.1276 190.665 45.2042 190.882 45.3011C190.954 45.3253 190.998 45.3575 191.014 45.3979C191.038 45.4302 191.058 45.4907 191.074 45.5794L191.218 47.2617C191.218 47.2859 191.198 47.3021 191.158 47.3101C191.118 47.3182 191.094 47.3061 191.086 47.2738C190.814 46.6364 190.449 46.1442 189.993 45.7973C189.536 45.4503 189.008 45.2769 188.407 45.2769C187.614 45.2769 187.001 45.5714 186.569 46.1604C186.136 46.7494 185.92 47.5401 185.92 48.5325C185.92 49.2748 186.036 49.9526 186.268 50.5658C186.509 51.179 186.841 51.6672 187.265 52.0303C187.698 52.3853 188.187 52.5628 188.731 52.5628C189.244 52.5628 189.7 52.3933 190.101 52.0545C190.509 51.7075 190.874 51.1831 191.194 50.4811C191.202 50.4488 191.226 50.4367 191.266 50.4448C191.314 50.4529 191.338 50.469 191.338 50.4932L191.158 52.1392C191.142 52.236 191.122 52.3006 191.098 52.3328C191.082 52.357 191.038 52.3853 190.966 52.4176C190.253 52.6838 189.52 52.8169 188.767 52.8169C187.79 52.8169 186.973 52.6233 186.316 52.236C185.66 51.8407 185.175 51.3444 184.863 50.7474C184.558 50.1422 184.406 49.5129 184.406 48.8593C184.406 48.0928 184.61 47.415 185.019 46.826C185.435 46.237 185.984 45.7811 186.665 45.4584C187.354 45.1357 188.09 44.9743 188.875 44.9743Z" fill="#010101"/>
<path d="M197.068 51.8608C197.068 52.7 196.992 53.3737 196.84 53.882C196.696 54.3903 196.448 54.8058 196.095 55.1286C195.743 55.4513 195.238 55.7418 194.581 56H194.569C194.545 56 194.525 55.9798 194.509 55.9395C194.501 55.9072 194.505 55.883 194.521 55.8669C194.97 55.5764 195.282 55.1326 195.459 54.5356C195.635 53.9466 195.723 53.1639 195.723 52.1876V46.0878C195.723 45.8457 195.699 45.6682 195.651 45.5552C195.611 45.4423 195.531 45.3656 195.41 45.3253C195.29 45.2769 195.102 45.2527 194.846 45.2527C194.83 45.2527 194.822 45.2284 194.822 45.18C194.822 45.1316 194.83 45.1074 194.846 45.1074L195.531 45.1195C195.899 45.1357 196.183 45.1437 196.384 45.1437C196.6 45.1437 196.876 45.1357 197.213 45.1195L197.789 45.1074C197.805 45.1074 197.813 45.1316 197.813 45.18C197.813 45.2284 197.805 45.2527 197.789 45.2527C197.581 45.2527 197.425 45.2769 197.321 45.3253C197.225 45.3737 197.157 45.4584 197.117 45.5794C197.084 45.6924 197.068 45.8699 197.068 46.112V51.8608Z" fill="#010101"/>
<path d="M206.643 50.7474C206.643 50.7312 206.659 50.7232 206.691 50.7232C206.715 50.7232 206.736 50.7312 206.752 50.7474C206.776 50.7554 206.788 50.7635 206.788 50.7716C206.707 51.4009 206.667 51.9738 206.667 52.4902C206.667 52.5547 206.655 52.6031 206.631 52.6354C206.607 52.6596 206.559 52.6717 206.487 52.6717H201.177C201.153 52.6717 201.141 52.6475 201.141 52.5991C201.141 52.5507 201.153 52.5265 201.177 52.5265C201.433 52.5265 201.617 52.5063 201.73 52.466C201.85 52.4256 201.93 52.349 201.97 52.236C202.01 52.115 202.03 51.9334 202.03 51.6914V46.0878C202.03 45.8457 202.01 45.6682 201.97 45.5552C201.93 45.4423 201.85 45.3656 201.73 45.3253C201.609 45.2769 201.425 45.2527 201.177 45.2527C201.153 45.2527 201.141 45.2284 201.141 45.18C201.141 45.1316 201.153 45.1074 201.177 45.1074H206.271C206.351 45.1074 206.391 45.1437 206.391 45.2163L206.415 46.826C206.415 46.8422 206.391 46.8543 206.343 46.8623C206.303 46.8704 206.279 46.8623 206.271 46.8381C206.143 46.3702 205.927 46.0232 205.622 45.7973C205.318 45.5714 204.917 45.4584 204.421 45.4584H204.06C203.82 45.4584 203.644 45.5108 203.532 45.6157C203.42 45.7206 203.364 45.882 203.364 46.0999V48.5688H204.361C204.825 48.5688 205.182 48.4882 205.43 48.3268C205.678 48.1654 205.802 47.9395 205.802 47.649C205.802 47.6248 205.822 47.6127 205.862 47.6127C205.911 47.6127 205.935 47.6248 205.935 47.649L205.923 48.7383L205.935 49.3192C205.951 49.5936 205.959 49.8114 205.959 49.9728C205.959 49.9889 205.935 49.997 205.887 49.997C205.838 49.997 205.814 49.9889 205.814 49.9728C205.814 49.642 205.686 49.3838 205.43 49.1982C205.182 49.0045 204.821 48.9077 204.349 48.9077H203.364V51.643C203.364 51.877 203.408 52.0504 203.496 52.1634C203.584 52.2764 203.724 52.3328 203.916 52.3328H204.313C204.937 52.3328 205.438 52.2037 205.814 51.9455C206.191 51.6873 206.467 51.288 206.643 50.7474Z" fill="#010101"/>
<path d="M28.4795 27.9297C28.5387 27.9297 28.5682 28.0191 28.5682 28.1978C28.5682 28.3766 28.5387 28.4659 28.4795 28.4659H22.757C22.0177 28.4659 20.6277 27.1998 18.5871 24.6675C16.5761 22.1054 14.1215 18.5453 11.2232 13.9872C10.5135 14.1957 9.71498 14.3 8.82776 14.3C8.26586 14.3 7.60045 14.2702 6.83154 14.2106V24.8463C6.83154 25.7698 6.92026 26.4401 7.0977 26.8572C7.27514 27.2743 7.61524 27.5573 8.11799 27.7063C8.65032 27.8552 9.47839 27.9297 10.6022 27.9297C10.6909 27.9297 10.7353 28.0191 10.7353 28.1978C10.7353 28.3766 10.6909 28.4659 10.6022 28.4659C9.6854 28.4659 8.96084 28.4511 8.42852 28.4213L5.36763 28.3766L2.35111 28.4213C1.81879 28.4511 1.06465 28.4659 0.0887213 28.4659C0.0295737 28.4659 0 28.3766 0 28.1978C0 28.0191 0.0295737 27.9297 0.0887213 27.9297C1.21252 27.9297 2.04059 27.8552 2.57292 27.7063C3.10524 27.5275 3.47492 27.2296 3.68193 26.8125C3.88895 26.3954 3.99246 25.74 3.99246 24.8463V4.15594C3.99246 3.26219 3.88895 2.60677 3.68193 2.18969C3.50449 1.7726 3.1496 1.48958 2.61728 1.34062C2.11452 1.16187 1.30124 1.0725 0.177443 1.0725C0.0887213 1.0725 0.0443607 0.983125 0.0443607 0.804376C0.0443607 0.625626 0.0887213 0.536251 0.177443 0.536251L2.35111 0.580938C3.59321 0.640521 4.59872 0.670312 5.36763 0.670312C5.89996 0.670312 6.40272 0.655416 6.8759 0.625625C7.34908 0.595834 7.76311 0.566043 8.11799 0.536251C9.06435 0.446876 9.92199 0.402188 10.6909 0.402188C13.0864 0.402188 14.9347 0.89375 16.236 1.87688C17.5372 2.86 18.1879 4.23042 18.1879 5.98813C18.1879 7.41813 17.7738 8.77365 16.9458 10.0547C16.1177 11.3059 15.0235 12.304 13.6631 13.0488C16.1768 16.8323 18.2914 19.7966 20.0066 21.9416C21.7219 24.0568 23.245 25.591 24.5758 26.5444C25.9066 27.4679 27.2078 27.9297 28.4795 27.9297ZM6.83154 13.0934C7.57088 13.2126 8.44331 13.2722 9.44881 13.2722C11.4894 13.2722 12.9533 12.8402 13.8405 11.9763C14.7277 11.0825 15.1713 9.60782 15.1713 7.55219C15.1713 3.2324 13.3673 1.0725 9.75934 1.0725C8.96084 1.0725 8.35458 1.14698 7.94055 1.29594C7.55609 1.4151 7.27514 1.69813 7.0977 2.145C6.92026 2.56208 6.83154 3.26219 6.83154 4.24531V13.0934Z" fill="#010101"/>
<path d="M57.9727 21.8075C57.9727 21.7479 58.0319 21.7181 58.1502 21.7181C58.2389 21.7181 58.3128 21.733 58.372 21.7628C58.4607 21.7926 58.5051 21.8373 58.5051 21.8969C58.2389 23.7738 58.1058 25.74 58.1058 27.7956C58.1058 28.034 58.0467 28.2127 57.9284 28.3319C57.8397 28.4213 57.6622 28.4659 57.3961 28.4659H38.809C38.7498 28.4659 38.7202 28.3766 38.7202 28.1978C38.7202 28.0191 38.7498 27.9297 38.809 27.9297C39.9328 27.9297 40.746 27.8552 41.2488 27.7063C41.7811 27.5573 42.136 27.2743 42.3134 26.8572C42.5205 26.4103 42.624 25.74 42.624 24.8463V4.15594C42.624 3.26219 42.5205 2.60677 42.3134 2.18969C42.136 1.7726 41.7811 1.48958 41.2488 1.34062C40.746 1.16187 39.9328 1.0725 38.809 1.0725C38.7498 1.0725 38.7202 0.983125 38.7202 0.804376C38.7202 0.625626 38.7498 0.536251 38.809 0.536251H56.6419C56.9081 0.536251 57.0412 0.670313 57.0412 0.938436L57.1299 6.435C57.1299 6.52438 57.056 6.58396 56.9081 6.61375C56.7602 6.61375 56.6715 6.56906 56.6419 6.47969C56.5532 4.90073 56.08 3.67927 55.2224 2.81531C54.3647 1.92156 53.2262 1.47469 51.8066 1.47469H49.1006C48.0655 1.47469 47.2966 1.56406 46.7939 1.74281C46.3207 1.89177 45.9806 2.17479 45.7736 2.59187C45.5961 2.97917 45.5074 3.575 45.5074 4.37938V13.4509H50.9194C52.3389 13.4509 53.3445 13.2126 53.9359 12.7359C54.557 12.2593 54.8675 11.4549 54.8675 10.3228C54.8675 10.2632 54.9562 10.2334 55.1337 10.2334C55.3111 10.2334 55.3998 10.2632 55.3998 10.3228L55.3555 13.9425C55.3555 14.8065 55.3703 15.4619 55.3998 15.9088L55.4442 18.0538C55.4442 18.1133 55.3555 18.1431 55.178 18.1431C55.0006 18.1431 54.9119 18.1133 54.9119 18.0538C54.9119 16.7429 54.5866 15.8045 53.9359 15.2384C53.3149 14.6724 52.265 14.3894 50.7863 14.3894H45.5074V24.6675C45.5074 25.5017 45.5961 26.1124 45.7736 26.4997C45.951 26.887 46.2763 27.1551 46.7495 27.3041C47.2227 27.453 47.962 27.5275 48.9675 27.5275H52.5164C53.9359 27.5275 55.1189 27.021 56.0652 26.0081C57.0116 24.9952 57.6474 23.595 57.9727 21.8075Z" fill="#010101"/>
<path d="M77.8068 24.6675C77.8068 25.5315 77.8955 26.1571 78.073 26.5444C78.2504 26.9317 78.5757 27.1998 79.0489 27.3488C79.5221 27.4679 80.291 27.5275 81.3556 27.5275H86.1909C87.8766 27.5275 89.2223 27.0062 90.2278 25.9634C91.2333 24.9207 91.8987 23.4758 92.224 21.6288C92.224 21.5394 92.2979 21.5096 92.4458 21.5394C92.6232 21.5394 92.712 21.5841 92.712 21.6734C92.4458 24.1462 92.3127 26.1869 92.3127 27.7956C92.3127 28.034 92.2683 28.2127 92.1796 28.3319C92.0909 28.4213 91.9135 28.4659 91.6473 28.4659H71.1527C71.0935 28.4659 71.064 28.3766 71.064 28.1978C71.064 28.0191 71.0935 27.9297 71.1527 27.9297C72.2765 27.9297 73.0898 27.8552 73.5925 27.7063C74.1249 27.5573 74.4797 27.2743 74.6572 26.8572C74.8346 26.4103 74.9233 25.74 74.9233 24.8463V4.15594C74.9233 3.26219 74.8346 2.60677 74.6572 2.18969C74.4797 1.7726 74.1249 1.48958 73.5925 1.34062C73.0898 1.16187 72.2765 1.0725 71.1527 1.0725C71.0935 1.0725 71.064 0.983125 71.064 0.804376C71.064 0.625626 71.0935 0.536251 71.1527 0.536251L73.3264 0.580938C74.5685 0.640521 75.574 0.670312 76.3429 0.670312C77.171 0.670312 78.206 0.640521 79.4481 0.580938L81.5774 0.536251C81.6662 0.536251 81.7105 0.625626 81.7105 0.804376C81.7105 0.983125 81.6662 1.0725 81.5774 1.0725C80.4832 1.0725 79.6699 1.16187 79.1376 1.34062C78.6348 1.48958 78.28 1.7875 78.073 2.23438C77.8955 2.65146 77.8068 3.30688 77.8068 4.20063V24.6675Z" fill="#010101"/>
<path d="M110.953 24.8463C110.953 25.74 111.042 26.4103 111.219 26.8572C111.397 27.2743 111.737 27.5573 112.24 27.7063C112.772 27.8552 113.6 27.9297 114.724 27.9297C114.813 27.9297 114.857 28.0191 114.857 28.1978C114.857 28.3766 114.813 28.4659 114.724 28.4659C113.837 28.4659 113.127 28.4511 112.595 28.4213L109.445 28.3766L106.384 28.4213C105.852 28.4511 105.127 28.4659 104.21 28.4659C104.122 28.4659 104.077 28.3766 104.077 28.1978C104.077 28.0191 104.122 27.9297 104.21 27.9297C105.334 27.9297 106.147 27.8552 106.65 27.7063C107.183 27.5573 107.537 27.2743 107.715 26.8572C107.922 26.4103 108.025 25.74 108.025 24.8463V4.15594C108.025 3.26219 107.922 2.60677 107.715 2.18969C107.537 1.7726 107.183 1.48958 106.65 1.34062C106.147 1.16187 105.334 1.0725 104.21 1.0725C104.122 1.0725 104.077 0.983125 104.077 0.804376C104.077 0.625626 104.122 0.536251 104.21 0.536251L106.384 0.580938C107.626 0.640521 108.646 0.670312 109.445 0.670312C110.332 0.670312 111.397 0.640521 112.639 0.580938L114.724 0.536251C114.813 0.536251 114.857 0.625626 114.857 0.804376C114.857 0.983125 114.813 1.0725 114.724 1.0725C113.63 1.0725 112.816 1.16187 112.284 1.34062C111.781 1.51938 111.426 1.83219 111.219 2.27906C111.042 2.69615 110.953 3.35156 110.953 4.24531V24.8463Z" fill="#010101"/>
<path d="M156.735 27.9297C156.853 27.9297 156.912 28.0191 156.912 28.1978C156.912 28.3766 156.853 28.4659 156.735 28.4659C156.173 28.4659 155.3 28.4362 154.117 28.3766C152.934 28.317 152.077 28.2872 151.545 28.2872C150.894 28.2872 150.066 28.317 149.06 28.3766C148.114 28.4362 147.389 28.4659 146.887 28.4659C146.768 28.4659 146.709 28.3766 146.709 28.1978C146.709 28.0191 146.768 27.9297 146.887 27.9297C147.981 27.9297 148.779 27.8254 149.282 27.6169C149.785 27.4083 150.036 27.0508 150.036 26.5444C150.036 26.1273 149.844 25.4868 149.46 24.6228L144.358 13.6744H135.974L132.159 22.7906C131.745 23.8036 131.538 24.6377 131.538 25.2931C131.538 27.0508 132.987 27.9297 135.885 27.9297C136.033 27.9297 136.107 28.0191 136.107 28.1978C136.107 28.3766 136.033 28.4659 135.885 28.4659C135.353 28.4659 134.584 28.4362 133.578 28.3766C132.455 28.317 131.479 28.2872 130.651 28.2872C129.882 28.2872 128.995 28.317 127.989 28.3766C127.102 28.4362 126.362 28.4659 125.771 28.4659C125.623 28.4659 125.549 28.3766 125.549 28.1978C125.549 28.0191 125.623 27.9297 125.771 27.9297C126.599 27.9297 127.294 27.7807 127.856 27.4828C128.447 27.1551 128.995 26.604 129.497 25.8294C130.03 25.025 130.606 23.878 131.227 22.3884L140.587 0.134063C140.647 0.0446878 140.75 0 140.898 0C141.046 0 141.135 0.0446878 141.164 0.134063L151.633 22.3438C152.639 24.5483 153.496 26.0379 154.206 26.8125C154.916 27.5573 155.759 27.9297 156.735 27.9297ZM136.373 12.7359H143.915L139.922 4.24531L136.373 12.7359Z" fill="#010101"/>
<path d="M196.976 0.536251C197.065 0.536251 197.109 0.625626 197.109 0.804376C197.109 0.983125 197.065 1.0725 196.976 1.0725C195.734 1.0725 194.832 1.4151 194.27 2.10031C193.708 2.78552 193.428 3.90271 193.428 5.45188V29.0022C193.428 29.0618 193.354 29.1065 193.206 29.1363C193.058 29.1661 192.954 29.1512 192.895 29.0916L172.489 4.20063L172.09 3.75375V23.595C172.09 25.1442 172.356 26.2614 172.889 26.9466C173.45 27.602 174.338 27.9297 175.55 27.9297C175.639 27.9297 175.683 28.0191 175.683 28.1978C175.683 28.3766 175.639 28.4659 175.55 28.4659C174.811 28.4659 174.249 28.4511 173.865 28.4213L171.646 28.3766L169.384 28.4213C168.97 28.4511 168.364 28.4659 167.565 28.4659C167.506 28.4659 167.477 28.3766 167.477 28.1978C167.477 28.0191 167.506 27.9297 167.565 27.9297C168.837 27.9297 169.739 27.602 170.271 26.9466C170.804 26.2614 171.07 25.1442 171.07 23.595V2.68125C169.916 1.60875 168.748 1.0725 167.565 1.0725C167.477 1.0725 167.432 0.983125 167.432 0.804376C167.432 0.625626 167.477 0.536251 167.565 0.536251L169.207 0.580938C169.562 0.61073 170.049 0.625625 170.671 0.625625C171.321 0.625625 171.854 0.61073 172.268 0.580938C172.682 0.551147 173.007 0.536251 173.243 0.536251C173.48 0.536251 173.643 0.595834 173.731 0.714999C173.85 0.804375 174.027 1.02781 174.264 1.38531C174.619 1.92156 174.974 2.41313 175.328 2.86L192.407 23.9972V5.45188C192.407 3.90271 192.141 2.78552 191.609 2.10031C191.106 1.4151 190.248 1.0725 189.036 1.0725C188.977 1.0725 188.947 0.983125 188.947 0.804376C188.947 0.625626 188.977 0.536251 189.036 0.536251L190.766 0.580938C191.653 0.640521 192.378 0.670312 192.94 0.670312C193.472 0.670312 194.211 0.640521 195.158 0.580938L196.976 0.536251Z" fill="#010101"/>
<path d="M225.259 0.0446869C226.679 0.0446869 228.113 0.17875 229.562 0.446875C231.011 0.715 232.165 1.10229 233.022 1.60875C233.288 1.72792 233.451 1.86198 233.51 2.01094C233.599 2.13011 233.658 2.35354 233.688 2.68125L234.176 7.68625C234.176 7.77563 234.102 7.83521 233.954 7.865C233.806 7.865 233.717 7.82032 233.688 7.73094C233.037 5.43698 231.824 3.75375 230.05 2.68125C228.305 1.57896 226.131 1.02781 223.529 1.02781C221.281 1.02781 219.315 1.53427 217.629 2.54719C215.943 3.53031 214.642 4.93052 213.725 6.74781C212.809 8.56511 212.35 10.6654 212.35 13.0488C212.35 15.8194 212.912 18.3815 214.036 20.735C215.189 23.0886 216.727 24.9505 218.649 26.3209C220.601 27.6914 222.701 28.3766 224.949 28.3766C227.078 28.3766 228.926 27.7956 230.494 26.6338C232.061 25.4421 233.259 23.6248 234.087 21.1819C234.087 21.0925 234.146 21.0478 234.264 21.0478C234.353 21.0478 234.427 21.0627 234.486 21.0925C234.575 21.1223 234.619 21.167 234.619 21.2266L233.998 26.2763C233.939 26.6338 233.865 26.8721 233.776 26.9913C233.717 27.0806 233.555 27.1849 233.288 27.3041C230.627 28.4362 227.817 29.0022 224.86 29.0022C221.311 29.0022 218.339 28.2872 215.943 26.8572C213.577 25.3974 211.833 23.5503 210.709 21.3159C209.585 19.0816 209.023 16.728 209.023 14.2553C209.023 11.5145 209.777 9.05667 211.285 6.88188C212.794 4.70708 214.79 3.02385 217.274 1.83219C219.758 0.640521 222.42 0.0446869 225.259 0.0446869Z" fill="#010101"/>
<path d="M266.468 21.8075C266.468 21.7479 266.527 21.7181 266.645 21.7181C266.734 21.7181 266.808 21.733 266.867 21.7628C266.956 21.7926 267 21.8373 267 21.8969C266.734 23.7738 266.601 25.74 266.601 27.7956C266.601 28.034 266.542 28.2127 266.423 28.3319C266.335 28.4213 266.157 28.4659 265.891 28.4659H247.304C247.245 28.4659 247.215 28.3766 247.215 28.1978C247.215 28.0191 247.245 27.9297 247.304 27.9297C248.428 27.9297 249.241 27.8552 249.744 27.7063C250.276 27.5573 250.631 27.2743 250.808 26.8572C251.015 26.4103 251.119 25.74 251.119 24.8463V4.15594C251.119 3.26219 251.015 2.60677 250.808 2.18969C250.631 1.7726 250.276 1.48958 249.744 1.34062C249.241 1.16187 248.428 1.0725 247.304 1.0725C247.245 1.0725 247.215 0.983125 247.215 0.804376C247.215 0.625626 247.245 0.536251 247.304 0.536251H265.137C265.403 0.536251 265.536 0.670313 265.536 0.938436L265.625 6.435C265.625 6.52438 265.551 6.58396 265.403 6.61375C265.255 6.61375 265.166 6.56906 265.137 6.47969C265.048 4.90073 264.575 3.67927 263.717 2.81531C262.86 1.92156 261.721 1.47469 260.302 1.47469H257.596C256.56 1.47469 255.792 1.56406 255.289 1.74281C254.816 1.89177 254.475 2.17479 254.268 2.59187C254.091 2.97917 254.002 3.575 254.002 4.37938V13.4509H259.414C260.834 13.4509 261.839 13.2126 262.431 12.7359C263.052 12.2593 263.362 11.4549 263.362 10.3228C263.362 10.2632 263.451 10.2334 263.629 10.2334C263.806 10.2334 263.895 10.2632 263.895 10.3228L263.85 13.9425C263.85 14.8065 263.865 15.4619 263.895 15.9088L263.939 18.0538C263.939 18.1133 263.85 18.1431 263.673 18.1431C263.496 18.1431 263.407 18.1133 263.407 18.0538C263.407 16.7429 263.081 15.8045 262.431 15.2384C261.81 14.6724 260.76 14.3894 259.281 14.3894H254.002V24.6675C254.002 25.5017 254.091 26.1124 254.268 26.4997C254.446 26.887 254.771 27.1551 255.244 27.3041C255.718 27.453 256.457 27.5275 257.462 27.5275H261.011C262.431 27.5275 263.614 27.021 264.56 26.0081C265.507 24.9952 266.142 23.595 266.468 21.8075Z" fill="#010101"/>
</svg>
