<svg width="48" height="24" viewBox="0 0 48 24" fill="none" xmlns="http://www.w3.org/2000/svg">
<path fill-rule="evenodd" clip-rule="evenodd" d="M23.9977 0C12.4699 13.8083 0 14.8257 0 14.8257V17.1038C0 17.1038 16.4603 14.8257 23.9977 5.84671V0ZM0 18.2289C0 18.2289 13.8 17.6181 23.9977 10.5589V16.1553C12.6362 19.8961 0 20.507 0 20.507V18.2289ZM0 21.7257C0 21.7257 21.1157 20.2141 23.9977 18.9362V23.9975H0V21.7257Z" fill="black"/>
<path fill-rule="evenodd" clip-rule="evenodd" d="M24.0023 0C35.5301 13.8083 48 14.8257 48 14.8257V17.1038C48 17.1038 31.5397 14.8257 24.0023 5.84671V0ZM48.0007 18.2289C48.0007 18.2289 34.2007 17.6181 24.0031 10.5589V16.1553C35.3645 19.8961 48.0007 20.507 48.0007 20.507V18.2289ZM48.0007 21.7257C48.0007 21.7257 26.885 20.2141 24.0031 18.9362V23.9975H48.0007V21.7257Z" fill="black"/>
</svg>
